<?xml version="1.0" encoding="utf-8"?>
<!-- Generator: Adobe Illustrator 23.0.4, SVG Export Plug-In . SVG Version: 6.00 Build 0)  -->
<svg version="1.1" id="Layer_1" xmlns="http://www.w3.org/2000/svg" xmlns:xlink="http://www.w3.org/1999/xlink" x="0px" y="0px"
	 viewBox="0 0 100 100" style="enable-background:new 0 0 100 100;" xml:space="preserve">
<style type="text/css">
	.st0{fill:#FFFFFF;}
</style>
<path class="st0" d="M67.1,6.6L62.7,10c0,0-3.1,2-1.1,5c2,3.1,8.1,13.5,8.5,20.7c0.4,7.1,1.2,34.6-36.1,49.5c0,0-6.3,6,1.6,7.1
	c46.4,6.6,82.3-65.8,39-72.5L71.8,8.4C71.8,8.4,70.8,3.6,67.1,6.6z"/>
<path class="st0" d="M66,38.4c0,0,0.9,23-30.6,41c0,0-18,1.1-20.5-4.7c-2.6-5.8,0-6,0-6S54.1,61.7,66,38.4z"/>
<path class="st0" d="M63.4,33c0,0-5.4,20.5-42.3,30.4c0,0-15.4-3.2-15.4-9.2S9.1,49,9.1,49S48.4,51.2,63.4,33z"/>
</svg>
