<svg height='100px' width='100px'  fill="#000000" xmlns="http://www.w3.org/2000/svg" xmlns:xlink="http://www.w3.org/1999/xlink" version="1.1" x="0px" y="0px" viewBox="0 0 100 100" enable-background="new 0 0 100 100" xml:space="preserve"><path d="M67.103,6.55l-4.429,3.445c0,0-3.077,1.969-1.108,5.045c1.969,3.077,8.122,13.536,8.49,20.673  c0.37,7.138,1.23,34.578-36.054,49.467c0,0-6.299,6.006,1.6,7.138c46.39,6.645,82.321-65.833,39.008-72.478l-2.83-11.444  C71.779,8.396,70.834,3.647,67.103,6.55z"></path><path d="M65.995,38.42c0,0,0.862,23.01-30.64,40.976c0,0-17.966,1.108-20.549-4.676c-2.584-5.783,0-6.029,0-6.029  S54.06,61.678,65.995,38.42z"></path><path d="M63.412,33.006c0,0-5.415,20.55-42.331,30.395c0,0-15.382-3.2-15.382-9.229s3.445-5.168,3.445-5.168  S48.399,51.218,63.412,33.006z"></path></svg>