<?xml version="1.0" encoding="utf-8"?>
<!-- Generator: Adobe Illustrator 23.0.4, SVG Export Plug-In . SVG Version: 6.00 Build 0)  -->
<svg version="1.1" id="Layer_1" xmlns="http://www.w3.org/2000/svg" xmlns:xlink="http://www.w3.org/1999/xlink" x="0px" y="0px"
	 viewBox="0 0 100 100" style="enable-background:new 0 0 100 100;" xml:space="preserve">
<style type="text/css">
	.st0{fill:#FFFFFF;}
</style>
<path class="st0" d="M74.3,72.8c3.6-2.5,9.1-7.4,10.8-14c1.9-7.3-1.1-14.8-3-18.5c-0.7-1.4-2.5-1.9-3.8-1
	c-3.5,2.3-9.8,7.4-11.7,14.7c-1,4-0.6,8.1,0.3,11.6c-3.8-3.8-7.3-7.5-10.4-10.8c3.8-2.3,9.3-6.5,11.6-12.8c1.3-3.5,1.3-7.2,0.9-10.5
	L94.7,5l-2.2-2.1L68.2,27.8c-0.5-1.8-1-3.4-1.5-4.6c-0.6-1.5-2.3-2.1-3.7-1.3c-3.7,2-10.4,6.5-13,13.6c-1.4,3.8-1.3,7.8-0.7,11.3
	c-2.7-3.2-5.2-6.1-7.4-8.8c3.6-2.5,9.2-7.4,10.9-14.2c1.9-7.3-1.2-14.8-3.1-18.5c-0.7-1.4-2.5-1.9-3.8-1c-3.5,2.3-9.8,7.4-11.6,14.7
	c-0.8,3-0.7,6-0.2,8.7c-4.5-6.2-7.2-10.7-9.4-13.8c-0.7-1-2.1-1.3-3.2-0.6s-1.4,2.2-0.6,3.3c2.1,3,4.8,7.3,9.1,13.3
	c-2.6-1.4-5.6-2.4-8.8-2.6c-7.5-0.5-14.2,4-17.5,6.6c-1.2,1-1.3,2.8-0.2,3.9c3,3,9.2,8.1,16.7,8.5c7.4,0.4,14-3.9,17.4-6.5
	c1.6,2,3.4,4.2,5.3,6.5c-1.1-0.4-2.3-0.6-3.5-0.8C32,44.6,24.9,48.6,21.5,51c-1.3,0.9-1.5,2.7-0.5,3.9c2.3,2.6,6.6,6.8,12.3,8.7
	l-31,31.8l2.2,2.1l32.2-33c0.1,0,0.3,0.1,0.4,0.1c7.1,0.9,13.9-2.7,17.5-5.2c2.4,2.5,4.9,5.2,7.6,8c-2.9-1-6.2-1.6-9.6-1.2
	c-7.5,0.9-13.3,6.4-16.1,9.6c-1,1.2-0.8,3,0.5,3.9c3.5,2.4,10.5,6.4,17.9,5.5c7.2-0.9,13-6.1,15.9-9.3c5.8,5.6,12.2,11.7,19.5,18.2
	c1,0.9,2.4,0.8,3.3-0.2s0.8-2.4-0.2-3.3C86.2,84.2,79.9,78.3,74.3,72.8z"/>
</svg>
