<svg height='100px' width='100px'  fill="#000000" xmlns="http://www.w3.org/2000/svg" xmlns:xlink="http://www.w3.org/1999/xlink" version="1.1" x="0px" y="0px" viewBox="0 0 100 100" style="enable-background:new 0 0 100 100;" xml:space="preserve"><g><ellipse transform="matrix(0.9870874 -0.1601825 0.1601825 0.9870874 -3.560811 8.3482208)" cx="50.0000458" cy="26.2603016" rx="8.1188765" ry="8.1189232"></ellipse><path d="M90.0333481,14.656312h-0.7215118V5.75564c0-0.4233246-0.3432007-0.766468-0.7664719-0.766468h-1.5204239   c-0.4233246,0-0.7665329,0.3431435-0.7665329,0.766468V3.7026193c0-0.5338902-0.4327621-0.966655-0.9666519-0.966655h-1.9241028   c-0.5338364,0-0.9666595,0.4327648-0.9666595,0.966655c0-0.5338902-0.4327621-0.966655-0.9666519-0.966655H79.510231   c-0.5338898,0-0.9666519,0.4327648-0.9666519,0.966655c0-0.5338902-0.4327621-0.966655-0.9666519-0.966655h-1.9241104   c-0.5338898,0-0.9666519,0.4327648-0.9666519,0.966655V14.656312h-1.9302444   c-0.3388977-0.498373-0.7973251-0.9245291-1.3800049-1.2036581c-1.5964813-0.7661734-3.4669571-0.2141104-4.4307175,1.2036581   H33.0547447c-0.9638214-1.4171791-2.8341789-1.9663506-4.4306583-1.2036581   c-0.5826836,0.279129-1.0411129,0.7052851-1.3800087,1.2036581h-1.9302406V3.7026193   c0-0.5338902-0.4328232-0.966655-0.9666557-0.966655h-1.9241638c-0.5338326,0-0.9666557,0.4327648-0.9666557,0.966655   c0-0.5338902-0.4327641-0.966655-0.9666557-0.966655h-1.9241047c-0.5338326,0-0.9666557,0.4327648-0.9666557,0.966655   c0-0.5338902-0.4327641-0.966655-0.9666557-0.966655h-1.9241047c-0.5338907,0-0.9666557,0.4327648-0.9666557,0.966655v2.9694078   c0-0.4232655-0.3431435-0.766468-0.766468-0.766468h-1.5204277c-0.4233246,0-0.766468,0.3432026-0.766468,0.766468v7.9842849   H9.9666548C9.432765,14.656312,9,15.089076,9,15.6229668v0.5851021c0,0.5338306,0.432765,0.9666557,0.9666548,0.9666557h0.7215109   v8.9006119c0,0.4233246,0.3431435,0.7665272,0.766468,0.7665272h1.5204277c0.4233246,0,0.766468-0.3432026,0.766468-0.7665272   v2.0530796c0,0.5338306,0.432765,0.9666557,0.9666557,0.9666557h1.9241047c0.5338917,0,0.9666557-0.4328251,0.9666557-0.9666557   c0,0.5338306,0.4328232,0.9666557,0.9666557,0.9666557h1.9241047c0.5338917,0,0.9666557-0.4328251,0.9666557-0.9666557   c0,0.5338306,0.4328232,0.9666557,0.9666557,0.9666557h1.9241638c0.5338326,0,0.9666557-0.4328251,0.9666557-0.9666557V17.1747246   h1.3631344c0.0516834,0.3334084,0.1352863,0.6655769,0.2885094,0.9856529l8.6243744,18.0105553   c0.7643433,1.8144264,2.677124,4.4622269,5.8329697,5.7421684v52.6451111c0,1.9493637,1.5802536,3.5296173,3.5296135,3.5296173   c1.9493561,0,3.5296097-1.5802536,3.5296097-3.5296173V69.8434982h3.0359039v24.7147141   c0,1.9493637,1.5802536,3.5296173,3.5296097,3.5296173c1.9493599,0,3.5296135-1.5802536,3.5296135-3.5296173V41.913456   c3.1560249-1.2798271,5.0685654-3.9279785,5.8329659-5.7425232l8.624382-18.0105553   c0.1532211-0.320076,0.236824-0.6522446,0.2885056-0.9856529h1.3631363v10.9536915   c0,0.5338306,0.4327621,0.9666557,0.9666519,0.9666557h1.9241104c0.5338898,0,0.9666519-0.4328251,0.9666519-0.9666557   c0,0.5338306,0.4327621,0.9666557,0.9666519,0.9666557h1.9241104c0.5338898,0,0.9666519-0.4328251,0.9666519-0.9666557   c0,0.5338306,0.4328232,0.9666557,0.9666595,0.9666557h1.9241028c0.5338898,0,0.9666519-0.4328251,0.9666519-0.9666557v-2.9694672   c0,0.4233246,0.3432083,0.766468,0.7665329,0.766468h1.5204239c0.4232712,0,0.7664719-0.3431435,0.7664719-0.766468v-7.9842243   h0.7215118C90.5672379,17.1747246,91,16.7418995,91,16.2080688v-0.5851021C91,15.089076,90.5672379,14.656312,90.0333481,14.656312   z M58.0013351,33.20961l-0.0925102,0.2114563c-0.0084991,0.0217094-0.9402237,2.1834679-3.2369728,2.1834679h-9.3427582   c-2.2099037,0-3.1576767-2.0059967-3.2379189-2.1844139l-7.7721786-16.2453957h31.3610649L58.0013351,33.20961z"></path></g></svg>