<?xml version="1.0" encoding="utf-8"?>
<!-- Generator: Adobe Illustrator 23.0.4, SVG Export Plug-In . SVG Version: 6.00 Build 0)  -->
<svg version="1.1" id="Layer_1" xmlns="http://www.w3.org/2000/svg" xmlns:xlink="http://www.w3.org/1999/xlink" x="0px" y="0px"
	 viewBox="0 0 100 100" style="enable-background:new 0 0 100 100;" xml:space="preserve">
<style type="text/css">
	.st0{fill:#FFFFFF;}
</style>
<g>
	<ellipse transform="matrix(0.9871 -0.1602 0.1602 0.9871 -3.5608 8.3482)" class="st0" cx="50" cy="26.3" rx="8.1" ry="8.1"/>
	<path class="st0" d="M90,14.7h-0.7V5.8C89.3,5.3,89,5,88.5,5H87c-0.4,0-0.8,0.3-0.8,0.8V3.7c0-0.5-0.4-1-1-1h-1.9c-0.5,0-1,0.4-1,1
		c0-0.5-0.4-1-1-1h-1.9c-0.5,0-1,0.4-1,1c0-0.5-0.4-1-1-1h-1.9c-0.5,0-1,0.4-1,1v11h-1.9c-0.3-0.5-0.8-0.9-1.4-1.2
		c-1.6-0.8-3.5-0.2-4.4,1.2H33.1c-1-1.4-2.8-2-4.4-1.2c-0.6,0.3-1,0.7-1.4,1.2h-1.9v-11c0-0.5-0.4-1-1-1h-1.9c-0.5,0-1,0.4-1,1
		c0-0.5-0.4-1-1-1h-1.9c-0.5,0-1,0.4-1,1c0-0.5-0.4-1-1-1h-1.9c-0.5,0-1,0.4-1,1v3c0-0.4-0.3-0.8-0.8-0.8h-1.5
		c-0.4,0-0.8,0.3-0.8,0.8v8H10c-0.5,0-1,0.4-1,1v0.6c0,0.5,0.4,1,1,1h0.7v8.9c0,0.4,0.3,0.8,0.8,0.8H13c0.4,0,0.8-0.3,0.8-0.8v2.1
		c0,0.5,0.4,1,1,1h1.9c0.5,0,1-0.4,1-1c0,0.5,0.4,1,1,1h1.9c0.5,0,1-0.4,1-1c0,0.5,0.4,1,1,1h1.9c0.5,0,1-0.4,1-1v-11h1.4
		c0.1,0.3,0.1,0.7,0.3,1l8.6,18c0.8,1.8,2.7,4.5,5.8,5.7v52.6c0,1.9,1.6,3.5,3.5,3.5c1.9,0,3.5-1.6,3.5-3.5V69.8h3v24.7
		c0,1.9,1.6,3.5,3.5,3.5c1.9,0,3.5-1.6,3.5-3.5V41.9c3.2-1.3,5.1-3.9,5.8-5.7l8.6-18c0.2-0.3,0.2-0.7,0.3-1h1.4v11c0,0.5,0.4,1,1,1
		h1.9c0.5,0,1-0.4,1-1c0,0.5,0.4,1,1,1h1.9c0.5,0,1-0.4,1-1c0,0.5,0.4,1,1,1h1.9c0.5,0,1-0.4,1-1v-3c0,0.4,0.3,0.8,0.8,0.8h1.5
		c0.4,0,0.8-0.3,0.8-0.8v-8H90c0.5,0,1-0.4,1-1v-0.6C91,15.1,90.6,14.7,90,14.7z M58,33.2l-0.1,0.2c0,0-0.9,2.2-3.2,2.2h-9.3
		c-2.2,0-3.2-2-3.2-2.2l-7.8-16.2h31.4L58,33.2z"/>
</g>
</svg>
