<svg height='100px' width='100px'  fill="#000000" xmlns="http://www.w3.org/2000/svg" xmlns:xlink="http://www.w3.org/1999/xlink" version="1.1" x="0px" y="0px" viewBox="0 0 36 36" style="enable-background:new 0 0 36 36;" xml:space="preserve"><g><polygon points="6.25,30.64 17.75,30.64 17.81,21.14 6.25,21.14  "></polygon><path d="M24.35,11.14c0.92-0.54,1.54-1.54,1.54-2.68c0-1.71-1.39-3.1-3.1-3.1c-1.19,0-3.12,2.89-4.62,5.47   c-1.49-2.58-3.43-5.47-4.62-5.47c-1.71,0-3.1,1.39-3.1,3.1c0,1.14,0.62,2.14,1.54,2.68H6.25v9.5h11.57l0.05-8.25   c0.07-0.02,0.17-0.04,0.3-0.07l0.2,0.05l-0.05,8.28h11.43v-9.5H24.35z"></path><polygon points="18.25,30.64 29.75,30.64 29.75,21.14 18.31,21.14  "></polygon></g></svg>