<svg height='100px' width='100px'  fill="#000000" xmlns="http://www.w3.org/2000/svg" xmlns:xlink="http://www.w3.org/1999/xlink" version="1.1" x="0px" y="0px" viewBox="0 0 512 512" style="enable-background:new 0 0 512 512;" xml:space="preserve"><g><g><path d="M164.677,455.773v22.421h183.649v-22.421h-33.613c-0.005,0-0.012,0.001-0.02,0H198.31H164.677z"></path><path d="M256.498,368.794c7.381,0,13.387-6.009,13.387-13.394c0-7.381-6.006-13.386-13.387-13.386    c-7.378,0-13.381,6.005-13.381,13.386C243.117,362.785,249.12,368.794,256.498,368.794z"></path><polygon points="211.127,396.621 202.996,447.773 310.007,447.773 301.869,396.621   "></polygon><path d="M297.456,248.683l125.251,0.355l9.189-81.628H290.989L297.456,248.683z M394.804,187.717c0-2.209,1.791-4,4-4s4,1.791,4,4    v40.646c0,2.209-1.791,4-4,4s-4-1.791-4-4V187.717z M369.945,187.717c0-2.209,1.791-4,4-4s4,1.791,4,4v40.646c0,2.209-1.791,4-4,4    s-4-1.791-4-4V187.717z M345.085,187.717c0-2.209,1.791-4,4-4s4,1.791,4,4v40.646c0,2.209-1.791,4-4,4s-4-1.791-4-4V187.717z     M320.226,187.717c0-2.209,1.791-4,4-4s4,1.791,4,4v40.646c0,2.209-1.791,4-4,4s-4-1.791-4-4V187.717z"></path><path d="M20.939,375.167c0,7.419,6.032,13.454,13.446,13.454h173.328h97.57h173.271c7.414,0,13.445-6.035,13.445-13.454v-52.978    H20.939V375.167z M256.498,334.015c11.793,0,21.387,9.594,21.387,21.386c0,11.797-9.594,21.394-21.387,21.394    c-11.79,0-21.381-9.597-21.381-21.394C235.117,343.608,244.708,334.015,256.498,334.015z"></path><path d="M478.554,34.76H34.385c-7.414,0-13.446,6.035-13.446,13.454v265.976h471.06V48.214    C491.999,40.795,485.968,34.76,478.554,34.76z M76.877,127.057h102.554c2.209,0,4,1.791,4,4s-1.791,4-4,4H76.877    c-2.209,0-4-1.791-4-4S74.668,127.057,76.877,127.057z M222.047,241.278H76.877c-2.209,0-4-1.791-4-4s1.791-4,4-4h145.17    c2.209,0,4,1.791,4,4S224.256,241.278,222.047,241.278z M457.882,155.182c0,6.743-5.483,12.229-12.224,12.229h-5.712l-9.69,86.085    c-0.228,2.023-1.939,3.553-3.975,3.553c-0.004,0-0.008,0-0.012,0l-132.52-0.376c-2.082-0.006-3.812-1.607-3.977-3.683    l-6.81-85.579h-4.594c-6.74,0-12.224-5.485-12.224-12.229v-11.91c0-6.739,5.483-12.222,12.224-12.222h34.45l-18.842-37.791    c-0.985-1.978-0.182-4.379,1.795-5.365c1.977-0.984,4.379-0.182,5.365,1.795l20.621,41.361h80.508l20.621-41.361    c0.986-1.977,3.388-2.779,5.365-1.795c1.977,0.986,2.78,3.388,1.795,5.365l-18.841,37.791h34.45    c6.74,0,12.224,5.482,12.224,12.222V155.182z"></path><path d="M445.658,139.05h-38.439l-4.271,8.568c-0.7,1.403-2.114,2.216-3.583,2.216c-0.6,0-1.209-0.136-1.782-0.421    c-1.977-0.986-2.78-3.388-1.795-5.365l2.492-4.998h-72.531l2.492,4.998c0.985,1.978,0.182,4.379-1.795,5.365    c-0.573,0.285-1.183,0.421-1.782,0.421c-1.469,0-2.883-0.813-3.583-2.216l-4.271-8.568H278.37c-2.29,0-4.224,1.934-4.224,4.222    v11.91c0,2.292,1.934,4.229,4.224,4.229h8.288h149.714h9.286c2.289,0,4.224-1.937,4.224-4.229v-11.91    C449.882,140.983,447.947,139.05,445.658,139.05z"></path></g></g></svg>