<svg height='100px' width='100px'  fill="#000000" xmlns="http://www.w3.org/2000/svg" data-name="Layer 1" viewBox="0 0 512 512" x="0px" y="0px"><title>Party</title><path d="M50.135,470a6,6,0,0,0,4.7,7.065l91.151,18.317a6,6,0,1,0,2.364-11.765l-39.693-7.976,23.1-114.952-11.766-2.365-23.1,114.953L57.2,465.3A6,6,0,0,0,50.135,470Z"></path><path d="M365.692,404.761l91.392-17.071a6,6,0,1,0-2.2-11.8l-39.8,7.434L393.554,268.072l-11.8,2.2,21.529,115.256-39.8,7.434a6,6,0,0,0,1.1,11.9A6.077,6.077,0,0,0,365.692,404.761Z"></path><polygon points="76.621 264.28 223.967 211.696 239.781 132.99 108.309 106.571 76.621 264.28"></polygon><path d="M155.3,300.223H126.192v29.1H155.3Z"></path><path d="M167.3,294.223v12.436l6.969,3.131,11.926-26.549-26.548-11.927-7.6,16.909h9.25A6,6,0,0,1,167.3,294.223Z"></path><path d="M84.48,325.242a66.406,66.406,0,0,0,42.564,28.379l.032.006.368.074A66.84,66.84,0,0,0,206,301.116l15.209-75.695L73.951,277.974A66.356,66.356,0,0,0,84.48,325.242Zm29.712-31.019a6,6,0,0,1,6-6h18.7l12.263-27.3a6,6,0,0,1,7.932-3.015l37.5,16.845a6,6,0,0,1,3.014,7.931l-16.844,37.5a6,6,0,0,1-7.932,3.015l-7.524-3.38v15.513a6,6,0,0,1-6,6h-41.1a6,6,0,0,1-6-6Z"></path><path d="M378.874,214.008A6,6,0,0,1,373,220.133l-12.433.261-2.984,7.033,26.793,11.367L395.743,212l-17.063-7.239Z"></path><path d="M366.139,179.163l-29.1.611.611,29.1,18.9-.4h.022l10.174-.214Z"></path><polygon points="276.849 41.123 295.03 138.46 436.076 163.233 408.668 16.499 276.849 41.123"></polygon><path d="M438.429,175.83,297.383,151.057l11.024,59.017a66.839,66.839,0,0,0,78.129,53.2l.038-.008.377-.07a66.837,66.837,0,0,0,53.2-78.129Zm-29.295,35.333L393.081,249a6,6,0,0,1-7.867,3.18l-37.84-16.053a6,6,0,0,1-3.18-7.867l3.222-7.594L331.905,221h-.129a6,6,0,0,1-6-5.874l-.863-41.095a6,6,0,0,1,5.873-6.125l41.1-.863a6.025,6.025,0,0,1,6.125,5.872l.392,18.7,27.55,11.687A6,6,0,0,1,409.134,211.163Z"></path></svg>