<svg height='100px' width='100px'  fill="#000000" xmlns="http://www.w3.org/2000/svg" xmlns:xlink="http://www.w3.org/1999/xlink" version="1.1" x="0px" y="0px" viewBox="0 0 100 100" style="enable-background:new 0 0 100 100;" xml:space="preserve"><g><g><path d="M62.1,24.4c0,12-13.6,4.3-12.2,21.8c0.5,6.7-12.2-9.8-12.2-21.8S43.2,2.6,49.9,2.6S62.1,12.3,62.1,24.4z"></path><path d="M33.8,26.4c10.4,6-3.1,14,12.8,21.5c6.1,2.9-14.6,5.7-25-0.3S5.5,31.9,8.8,26S23.4,20.3,33.8,26.4z"></path></g><path d="M21.6,52.1c10.4-6,10.6,9.7,25-0.3c5.6-3.8-2.3,15.5-12.8,21.5c-10.4,6-21.6,6.2-25,0.3S11.2,58.2,21.6,52.1z"></path><path d="M37.5,75.6c0-12,13.6-4.3,12.2-21.8c-0.5-6.7,12.2,9.8,12.2,21.8s-5.5,21.8-12.2,21.8S37.5,87.7,37.5,75.6z"></path><path d="M66,73.2c-10.4-6,3.1-14-12.8-21.5c-6.1-2.9,14.6-5.7,25,0.3S94.3,67.7,91,73.5S76.4,79.3,66,73.2z"></path><path d="M78.4,47.7c-10.4,6-10.6-9.7-25,0.3c-5.6,3.8,2.3-15.5,12.8-21.5s21.6-6.2,25-0.3S88.8,41.7,78.4,47.7z"></path></g></svg>