<?xml version="1.0" encoding="utf-8"?>
<!-- Generator: Adobe Illustrator 23.0.4, SVG Export Plug-In . SVG Version: 6.00 Build 0)  -->
<svg version="1.1" id="Layer_1" xmlns="http://www.w3.org/2000/svg" xmlns:xlink="http://www.w3.org/1999/xlink" x="0px" y="0px"
	 viewBox="0 0 100 100" style="enable-background:new 0 0 100 100;" xml:space="preserve">
<style type="text/css">
	.st0{fill:#FFFFFF;}
</style>
<g>
	<path class="st0" d="M44.4,35.2c0,0,7.6-22,29.7-22.9c0,0-25.9,8-28.4,36.1h-5c-2.3-18.6-19.6-24-19.6-24
		C36.5,25,41.7,40.2,41.7,40.2c2.1-31-31.4-16.4-31.4-16.4s6.3,3,10.3,13c3.9,10,15.7,6.5,15.7,6.5c0.6,1.3,0.8,3.3,0.9,5H20
		c-1.9,0-3.4,1.5-3.4,3.4l0.4,4.1h53.6l0.4-4.1c0-1.9-1.5-3.4-3.4-3.4H51c-0.1-2.7,0.1-6.5,1.2-8.7c0,0,17,5,22.6-9.4
		s14.8-18.8,14.8-18.8S41.4-9.4,44.4,35.2z"/>
	<path class="st0" d="M20,90c0,1.9,1.5,3.4,3.4,3.4h40.8c1.9,0,3.4-1.5,3.4-3.4l3-32.2H17L20,90z"/>
</g>
</svg>
