<svg height='100px' width='100px'  fill="#000000" xmlns="http://www.w3.org/2000/svg" xmlns:xlink="http://www.w3.org/1999/xlink" version="1.1" x="0px" y="0px" viewBox="0 0 95 95" enable-background="new 0 0 95 95" xml:space="preserve"><g><path d="M42.191,33.415c0,0,7.246-20.924,28.25-21.736c0,0-24.566,7.613-27.004,34.258h-4.746   c-2.199-17.691-18.639-22.789-18.639-22.789c14.578,0.564,19.609,15.086,19.609,15.086C41.637,8.823,9.824,22.637,9.824,22.637   s6.02,2.881,9.748,12.375C23.303,44.506,34.49,41.2,34.49,41.2c0.615,1.189,0.795,3.09,0.814,4.736H19.041   c-1.77,0-3.205,1.436-3.205,3.205l0.357,3.848H67.08l0.355-3.848c0-1.77-1.434-3.205-3.203-3.205H48.477   c-0.059-2.609,0.094-6.178,1.164-8.246c0,0,16.119,4.762,21.492-8.916s14.043-17.83,14.043-17.83S39.344-8.957,42.191,33.415z"></path><path d="M19.041,85.52c0,1.77,1.438,3.205,3.205,3.205h38.781c1.768,0,3.205-1.436,3.205-3.205l2.848-30.611H16.193L19.041,85.52z"></path></g></svg>