<svg id="Layer_1" data-name="Layer 1" xmlns="http://www.w3.org/2000/svg" viewBox="0 0 616.28 107.63"><defs><style>.cls-1{fill:#ee2854;}.cls-2{fill:#d03493;}.cls-3{fill:#34aa4a;}.cls-4{fill:#383e99;}</style></defs><title>logo</title><path d="M166.29,20.56a23,23,0,0,0-2.58,5.53,86,86,0,0,0-3.17,12.76A95.49,95.49,0,0,0,158.9,56.7q0,14.33,1.22,19.47a23.48,23.48,0,0,0,4.69,9.47c-.56,0-1.33.08-2.32.08a34.2,34.2,0,0,1-11-1.82,15.35,15.35,0,0,1-4.12-2.2A37.89,37.89,0,0,1,144,79a16.07,16.07,0,0,1-2.74-3.44q-1.38-2.2-2.22-3.72a36,36,0,0,1-1.9-4.2c-.7-1.79-1.23-3.22-1.58-4.28s-.85-2.59-1.48-4.59-1.13-3.47-1.48-4.43q-3.27-9.54-7-14.32A106.44,106.44,0,0,0,124.4,56.7q0,14.85.9,19.51a20,20,0,0,0,4.06,8.68,13.4,13.4,0,0,1-6.54-2.09,7.16,7.16,0,0,1-3.16-5q-1.06,6-11.71,9.93c1.19-1.82,2.11-3.32,2.74-4.51s1.33-3.81,2.11-7.88A80.49,80.49,0,0,0,114,60.56a127.39,127.39,0,0,0-2.27-25.19q-2.26-11.17-5.64-13.6a29.5,29.5,0,0,1,11.23,3.29,27.84,27.84,0,0,1,8.6,7.16,61.3,61.3,0,0,1,6,9,95.53,95.53,0,0,1,4.74,10.38c.78,2.07,1.74,4.76,2.9,8.07s2.08,5.91,2.75,7.8a43.38,43.38,0,0,0,2.53,5.76,14.6,14.6,0,0,0,3.11,4.28q.42-10,.42-16.9a127.35,127.35,0,0,0-2.26-25.23q-2.28-11.13-5.65-13.56,4.22.15,9,3.52t5.17,7.31a20.81,20.81,0,0,1,5.06-8.33Q163,20.94,166.29,20.56Z"/><path d="M210.62,65.46a20.89,20.89,0,0,1-2.78,10.42,21.8,21.8,0,0,1-8,8.06,22.44,22.44,0,0,1-11.73,3.13,23.44,23.44,0,0,1-12-2.94,18.76,18.76,0,0,1-7.43-7.38,20.18,20.18,0,0,1-2.36-9.6,20.6,20.6,0,0,1,2.48-10,19.53,19.53,0,0,1,7.92-7.69,25.72,25.72,0,0,1,12.91-3.09,22.81,22.81,0,0,1,11.69,2.87,18,18,0,0,1,7.12,7.09A19.35,19.35,0,0,1,210.62,65.46Zm-7.08-.58q0-9.73-3.74-12.68a5.37,5.37,0,0,1,.77,2.31,6.18,6.18,0,0,1-2.82,5.09q-2.82,2.1-7.85,2.1a11.22,11.22,0,0,1-6.24-1.54,4.42,4.42,0,0,1-2.36-3.72,4.27,4.27,0,0,1,2-3.66,8.66,8.66,0,0,1,5.07-1.4,8.13,8.13,0,0,1,4.42,1.15,3.27,3.27,0,0,1,1.82,2.71,2.92,2.92,0,0,1-1.4,2.43A6.44,6.44,0,0,1,187,58c-.82-.41-1.22-.93-1.22-1.54a1.49,1.49,0,0,1,.84-1.35,3.75,3.75,0,0,1,1.9-.48,3.85,3.85,0,0,1,1.79.38,1.16,1.16,0,0,1,.72,1,1,1,0,0,1-.41.82,4.33,4.33,0,0,1-.84.53q-.42.2-.42.24c0,.19.28.29.84.29a3.34,3.34,0,0,0,2-.8,2.44,2.44,0,0,0,1-2A2.41,2.41,0,0,0,191.81,53a6.68,6.68,0,0,0-3.35-.82,7,7,0,0,0-4.12,1.18,3.52,3.52,0,0,0-1.67,3,3.89,3.89,0,0,0,2.05,3.28A8.81,8.81,0,0,0,189.67,61a10.68,10.68,0,0,0,6.74-1.88,5.57,5.57,0,0,0,2.4-4.49,5.87,5.87,0,0,0-2.62-5.11,11.49,11.49,0,0,0-6.74-1.84,11.13,11.13,0,0,0-9.87,5.07q-3.39,5.06-3.39,13.36a32,32,0,0,0,1.45,10.08,15.21,15.21,0,0,0,4.49,7,11.34,11.34,0,0,0,15.05-.53A18.33,18.33,0,0,0,202,74.85,31.78,31.78,0,0,0,203.54,64.88Z"/><path d="M264.64,67.16q0,8.66-8.15,14.29t-20,5.62q-10.35,0-16.57-3.86t-6.22-9.46a10.32,10.32,0,0,1,4.08-8.16q4.08-3.41,10.66-3.4A13.6,13.6,0,0,1,237,64.64a7.23,7.23,0,0,1,3.19,5.89,7.16,7.16,0,0,1-2.72,5.82,10.54,10.54,0,0,1-6.9,2.22,10.21,10.21,0,0,1-6.11-1.83,5.27,5.27,0,0,1-2.57-4.29,4.79,4.79,0,0,1,2-3.87A7.33,7.33,0,0,1,228.58,67a7.43,7.43,0,0,1,3.81,1,2.87,2.87,0,0,1,1.73,2.45A2.44,2.44,0,0,1,233,72.6a4.63,4.63,0,0,1-2.62.77,4.57,4.57,0,0,1-2.45-.62,1.81,1.81,0,0,1-1-1.6,1.72,1.72,0,0,1,.58-1.31,5.7,5.7,0,0,1,1.15-.84c.38-.2.57-.33.57-.38,0-.31-.38-.46-1.15-.46a4.23,4.23,0,0,0-2.77,1.26,4.11,4.11,0,0,0-1.41,3.18A3.91,3.91,0,0,0,225.8,76a8,8,0,0,0,4.55,1.3,8.79,8.79,0,0,0,5.75-1.87,5.84,5.84,0,0,0,2.3-4.71,6.35,6.35,0,0,0-2.87-5.21,11,11,0,0,0-6.75-2.15,13.78,13.78,0,0,0-9,2.88,9.52,9.52,0,0,0-3.5,7.77q0,4.76,5.33,8a24,24,0,0,0,12.75,3.26q8.48,0,13.86-3.76a11.53,11.53,0,0,0,5.38-9.87,9.27,9.27,0,0,0-2.14-6,16.89,16.89,0,0,0-5.6-4.33A69.52,69.52,0,0,0,238.19,58c-2.79-1-5.57-2-8.36-3.1a60.85,60.85,0,0,1-7.63-3.52,16.42,16.42,0,0,1-5.59-5,12,12,0,0,1-2.15-7q0-8.13,7.74-12.79t18.5-4.68q7.53,0,12,2.76t4.5,7.05a8.45,8.45,0,0,1-3.71,7,14.25,14.25,0,0,1-8.84,2.8,11.89,11.89,0,0,1-7.47-2.14,6.16,6.16,0,0,1-2.77-4.91,5.78,5.78,0,0,1,2.35-4.55,8.65,8.65,0,0,1,5.7-2A8.17,8.17,0,0,1,247,29a3.17,3.17,0,0,1,1.68,2.75,3.38,3.38,0,0,1-1.21,2.61,4.48,4.48,0,0,1-3.08,1.07,5.24,5.24,0,0,1-3.14-.84,2.4,2.4,0,0,1-1.15-1.92,2.72,2.72,0,0,1,1.47-2.37c.76-.46,1.15-.77,1.15-.92s-.25-.31-.73-.31a6.07,6.07,0,0,0-3.51,1.46,4.57,4.57,0,0,0-1.93,3.83,5,5,0,0,0,2.3,4.09,9.67,9.67,0,0,0,6,1.73A10.38,10.38,0,0,0,252,37.76a7.93,7.93,0,0,0,2.72-6.13q0-3.6-3.61-5.86a17.22,17.22,0,0,0-9.25-2.26,17,17,0,0,0-10.35,3.07q-4.19,3.06-4.18,7.5a9.49,9.49,0,0,0,2,6.09,15.12,15.12,0,0,0,5.33,4.17,64.26,64.26,0,0,0,7.32,3q4,1.38,8,3a45.89,45.89,0,0,1,7.26,3.6,15.83,15.83,0,0,1,5.33,5.4A14.89,14.89,0,0,1,264.64,67.16Z"/><path d="M304.21,43.13q-1.29,1.78-3.54,12.49a86.82,86.82,0,0,0-2.25,16.6q0,11.58,3.81,13.79a3.69,3.69,0,0,1-.84.1,9.12,9.12,0,0,1-4.19-1.28,8.75,8.75,0,0,1-3.58-3.5,11.39,11.39,0,0,1-3,3.55,12.72,12.72,0,0,1-3.89,2.19,37.41,37.41,0,0,0,4.19-17.75c0-1,0-1.75-.07-2.26a13.07,13.07,0,0,0-4.12,1.18,4.63,4.63,0,0,0-2.05,2.67,3.63,3.63,0,0,0-2.21-2.62,15.4,15.4,0,0,0-4.95-1v.25q0,8.82.8,12.37a12.31,12.31,0,0,0,2.32,5.33,8.17,8.17,0,0,1-6.25-3.38,9.19,9.19,0,0,1-3,3,13,13,0,0,1-4.16,1.95,12.24,12.24,0,0,0,2.1-5.21,70.35,70.35,0,0,0,.65-11.62,51.69,51.69,0,0,0-2-15.08q-2-6.59-4.61-8.27a12.25,12.25,0,0,1,5.41,1.52A11.82,11.82,0,0,1,273,52a10,10,0,0,1,4.23-3.84,27.33,27.33,0,0,1,5.14-2.34A12.76,12.76,0,0,0,280.6,49a41.52,41.52,0,0,0-2,7.35,58.39,58.39,0,0,0-1.1,10.83q5.86-.53,6.93-3.57.38,2.51,6.4,3.14-.17-17.8-3.58-20.41a11.19,11.19,0,0,1,4.64,2,6.81,6.81,0,0,1,3,3.88,15.37,15.37,0,0,1,3.89-5.4A13.84,13.84,0,0,1,304.21,43.13Z"/><path d="M349.3,65.46a20.78,20.78,0,0,1-2.78,10.42,21.85,21.85,0,0,1-8,8.06,22.49,22.49,0,0,1-11.73,3.13,23.51,23.51,0,0,1-12-2.94,18.82,18.82,0,0,1-7.43-7.38,20.18,20.18,0,0,1-2.36-9.6,20.72,20.72,0,0,1,2.48-10,19.59,19.59,0,0,1,7.92-7.69,25.72,25.72,0,0,1,12.91-3.09A22.79,22.79,0,0,1,340,49.28a17.89,17.89,0,0,1,7.12,7.09A19.23,19.23,0,0,1,349.3,65.46Zm-7.08-.58q0-9.73-3.73-12.68a5.46,5.46,0,0,1,.76,2.31,6.18,6.18,0,0,1-2.82,5.09q-2.82,2.1-7.84,2.1a11.25,11.25,0,0,1-6.25-1.54A4.42,4.42,0,0,1,320,56.44a4.26,4.26,0,0,1,2-3.66,8.61,8.61,0,0,1,5.06-1.4,8.1,8.1,0,0,1,4.42,1.15,3.28,3.28,0,0,1,1.83,2.71,2.9,2.9,0,0,1-1.41,2.43,6.44,6.44,0,0,1-6.21.36c-.81-.41-1.22-.93-1.22-1.54a1.49,1.49,0,0,1,.84-1.35,3.75,3.75,0,0,1,1.9-.48A3.85,3.85,0,0,1,329,55a1.15,1.15,0,0,1,.73,1,1,1,0,0,1-.42.82,4.33,4.33,0,0,1-.84.53q-.42.2-.42.24c0,.19.28.29.84.29a3.34,3.34,0,0,0,2-.8,2.45,2.45,0,0,0,1-2A2.42,2.42,0,0,0,330.49,53a6.65,6.65,0,0,0-3.35-.82A6.9,6.9,0,0,0,323,53.38a3.53,3.53,0,0,0-1.68,3,3.89,3.89,0,0,0,2.06,3.28A8.81,8.81,0,0,0,328.36,61a10.72,10.72,0,0,0,6.74-1.88,5.57,5.57,0,0,0,2.4-4.49,5.88,5.88,0,0,0-2.63-5.11,11.46,11.46,0,0,0-6.74-1.84,11.13,11.13,0,0,0-9.87,5.07q-3.39,5.06-3.39,13.36a32.25,32.25,0,0,0,1.45,10.08,15.22,15.22,0,0,0,4.5,7,11.33,11.33,0,0,0,15-.53,18.44,18.44,0,0,0,4.84-7.79A32.07,32.07,0,0,0,342.22,64.88Z"/><path d="M396.53,65.46a20.89,20.89,0,0,1-2.78,10.42,21.88,21.88,0,0,1-8,8.06A22.44,22.44,0,0,1,374,87.07a23.44,23.44,0,0,1-12-2.94,18.76,18.76,0,0,1-7.43-7.38,20.06,20.06,0,0,1-2.36-9.6,20.71,20.71,0,0,1,2.47-10,19.59,19.59,0,0,1,7.92-7.69,25.76,25.76,0,0,1,12.92-3.09,22.84,22.84,0,0,1,11.69,2.87,18,18,0,0,1,7.12,7.09A19.35,19.35,0,0,1,396.53,65.46Zm-7.09-.58q0-9.73-3.73-12.68a5.32,5.32,0,0,1,.76,2.31,6.2,6.2,0,0,1-2.81,5.09q-2.82,2.1-7.85,2.1a11.28,11.28,0,0,1-6.25-1.54,4.44,4.44,0,0,1-2.36-3.72,4.28,4.28,0,0,1,2-3.66,8.66,8.66,0,0,1,5.07-1.4,8.13,8.13,0,0,1,4.42,1.15,3.29,3.29,0,0,1,1.82,2.71,2.9,2.9,0,0,1-1.41,2.43,6.42,6.42,0,0,1-6.2.36c-.82-.41-1.22-.93-1.22-1.54a1.5,1.5,0,0,1,.83-1.35,3.79,3.79,0,0,1,1.91-.48,3.85,3.85,0,0,1,1.79.38,1.16,1.16,0,0,1,.72,1,1,1,0,0,1-.42.82,4.59,4.59,0,0,1-.83.53q-.42.2-.42.24c0,.19.28.29.83.29a3.32,3.32,0,0,0,2-.8,2.43,2.43,0,0,0,1-2A2.4,2.4,0,0,0,377.71,53a6.63,6.63,0,0,0-3.35-.82,7,7,0,0,0-4.11,1.18,3.53,3.53,0,0,0-1.68,3,3.91,3.91,0,0,0,2.06,3.28A8.81,8.81,0,0,0,375.58,61a10.7,10.7,0,0,0,6.74-1.88,5.57,5.57,0,0,0,2.4-4.49,5.86,5.86,0,0,0-2.63-5.11,11.44,11.44,0,0,0-6.74-1.84,11.13,11.13,0,0,0-9.86,5.07q-3.39,5.06-3.39,13.36a32,32,0,0,0,1.45,10.08,15.21,15.21,0,0,0,4.49,7,11.33,11.33,0,0,0,15-.53,18.35,18.35,0,0,0,4.84-7.79A31.78,31.78,0,0,0,389.44,64.88Z"/><path d="M446.5,66.52c-.11,1.07-1.88,2.11-5.34,3.14a8.17,8.17,0,0,1,2.94,1.28,7.58,7.58,0,0,1,1.71,1.52,44.72,44.72,0,0,0-8.23-1.5,7.55,7.55,0,0,1,.69,3.28,11.16,11.16,0,0,1-1.75,5.94,14,14,0,0,1-5.64,4.87,19.52,19.52,0,0,1-9.14,2,23.52,23.52,0,0,1-12.07-3,19.13,19.13,0,0,1-7.54-7.47,21,21,0,0,1,0-19.56,19.18,19.18,0,0,1,7.8-7.53,25.67,25.67,0,0,1,12.76-3q6.93,0,10.74,2.6c2.54,1.74,3.81,3.76,3.81,6.08a6.23,6.23,0,0,1-2.78,5.09c-1.85,1.4-4.46,2.1-7.81,2.1a11.22,11.22,0,0,1-6.24-1.55,4.41,4.41,0,0,1-2.37-3.71,4.35,4.35,0,0,1,2-3.69A8.6,8.6,0,0,1,425.17,52a8,8,0,0,1,4.42,1.19,3.26,3.26,0,0,1,1.82,2.67A2.94,2.94,0,0,1,430,58.32a5.82,5.82,0,0,1-3.43,1,6,6,0,0,1-2.78-.65c-.84-.44-1.26-.95-1.26-1.52a1.55,1.55,0,0,1,.84-1.38,3.74,3.74,0,0,1,2-.51,3.79,3.79,0,0,1,1.75.39,1.17,1.17,0,0,1,.76,1.06,1,1,0,0,1-.45.77,4.47,4.47,0,0,1-.88.53c-.28.13-.42.21-.42.25s.31.29.92.29a3.25,3.25,0,0,0,1.94-.8,2.45,2.45,0,0,0,1-2,2.37,2.37,0,0,0-1.41-2.1,6.66,6.66,0,0,0-3.32-.8,7.21,7.21,0,0,0-4.15,1.18A3.48,3.48,0,0,0,419.38,57a3.88,3.88,0,0,0,2.09,3.31,9,9,0,0,0,4.92,1.32c2.94,0,5.2-.61,6.78-1.85a5.58,5.58,0,0,0,2.36-4.51A6.56,6.56,0,0,0,432.67,50q-2.85-2.27-7.88-2.27A14.3,14.3,0,0,0,410.89,57a24.45,24.45,0,0,0-1.49,8.73A29.08,29.08,0,0,0,411,75.18a19.77,19.77,0,0,0,4.46,7.53,8.86,8.86,0,0,0,6.47,3,8.73,8.73,0,0,0,5.07-1.4A7.2,7.2,0,0,0,429.7,81a12,12,0,0,0,.72-4.27c0-2.7-.55-4.71-1.67-6a44.91,44.91,0,0,0-11.2,1.93,3.84,3.84,0,0,1,1.64-2,6.64,6.64,0,0,1,3.54-1.18,6.48,6.48,0,0,1-5.18-3,43.19,43.19,0,0,0,7,1.23,76.13,76.13,0,0,0,8.49.51,62.08,62.08,0,0,0,7.85-.49A28.71,28.71,0,0,0,446.5,66.52Z"/><path d="M446.5,86.45q7.13-1,9.08-5.41a6.73,6.73,0,0,0,2.62,3.26,15.61,15.61,0,0,0,4.51,2.29q-2.35-3.86-3.37-13.22l15.66,0,1,.92c1.72,1.67,3.15,3,4.27,4s2.52,2.13,4.19,3.38A29.78,29.78,0,0,0,489,84.61a25,25,0,0,0,4.74,1.74,21.07,21.07,0,0,0,5.44.72,13.66,13.66,0,0,0,7.56-1.95q3-2,3-4.61t-2.94-4.87a11.84,11.84,0,0,0-7.25-2.17,11.16,11.16,0,0,0-5.83,1.35c-1.49.9-2.23,2-2.23,3.19a4.42,4.42,0,0,0,2.27,3.69,9.36,9.36,0,0,0,5.32,1.52,6.57,6.57,0,0,0,3.92-1,2.88,2.88,0,0,0,1.41-2.36,2.65,2.65,0,0,0-1.21-2.2,5.13,5.13,0,0,0-3.1-.89,4.12,4.12,0,0,0-2.39.63,1.84,1.84,0,0,0-.9,1.54,1.86,1.86,0,0,0,.9,1.52,4.16,4.16,0,0,0,3.41.48,4.87,4.87,0,0,0,.86-.33,1.17,1.17,0,0,1,.39-.17c.21,0,.32.09.32.29,0,.38-.37.74-1.1,1.08a6.48,6.48,0,0,1-2.74.51,6.34,6.34,0,0,1-4-1.23,3.55,3.55,0,0,1-1.6-2.82,3.07,3.07,0,0,1,1.76-2.75,8.75,8.75,0,0,1,4.43-1,9.72,9.72,0,0,1,6.07,1.84A5.24,5.24,0,0,1,508,80.51a4.53,4.53,0,0,1-2.46,3.91c-1.65,1-2.09,1-5,1a16,16,0,0,1-4.93-.82,23.85,23.85,0,0,1-4.5-2,35.64,35.64,0,0,1-4.43-3.11q-2.43-2-4.07-3.52T478.49,72c-.47-.45-.81-.78-1-1q-2.89-2.9-8-8.37T459,51.11c-3.62-4-5.6-6.24-5.91-6.56l-2.23.56q.31,3.22.32,16.3A95.12,95.12,0,0,1,449.94,77Q448.7,84.62,446.5,86.45ZM459,68.21c0-5.75.39-9.28,1.17-10.56q9,10,12.92,13.89l-13.94-.34C459.08,69.79,459,68.79,459,68.21Z"/><path class="cls-1" d="M591.24,46.9q-18.19,2.37-26,8.37t-9.83,20.41q-.6-10-6.61-16a31.23,31.23,0,0,0-14-8.22,104.79,104.79,0,0,0-20-3.09q20.55-2.34,28.77-9.24t10.86-23.64q2.06,17,10.43,23.64T591.24,46.9Z"/><path class="cls-2" d="M617.71,22.27q-5.09.66-7.26,2.34t-2.75,5.7a6.65,6.65,0,0,0-1.85-4.47A8.75,8.75,0,0,0,602,23.55a29.81,29.81,0,0,0-5.58-.87q5.75-.64,8-2.58c1.53-1.28,2.54-3.49,3-6.6.38,3.17,1.36,5.37,2.92,6.6S614.37,22.06,617.71,22.27Z"/><path class="cls-3" d="M477.31,18.71q7.63-1,10.89-3.51t4.13-8.55a10,10,0,0,0,2.77,6.71,13.08,13.08,0,0,0,5.84,3.44,43.24,43.24,0,0,0,8.37,1.29q-8.61,1-12.06,3.88t-4.55,9.91q-.87-7.14-4.37-9.91T477.31,18.71Z"/><path class="cls-2" d="M80.35,43.33q.66,5.09,2.34,7.26t5.7,2.75a6.62,6.62,0,0,0-4.47,1.84,8.8,8.8,0,0,0-2.3,3.9,29.9,29.9,0,0,0-.86,5.58c-.43-3.83-1.3-6.51-2.58-8s-3.49-2.54-6.61-3q4.77-.57,6.61-2.91C79.41,49.11,80.13,46.67,80.35,43.33Z"/><path class="cls-4" d="M55.25,31q-10.81,1.3-15.43,4.61c-3.09,2.21-5,6-5.85,11.24a12.6,12.6,0,0,0-3.92-8.81,19,19,0,0,0-8.29-4.53A66.31,66.31,0,0,0,9.9,31.85q12.21-1.29,17.1-5.1t6.45-13q1.21,9.39,6.19,13T55.25,31Z"/></svg>