<svg id="Layer_1" data-name="Layer 1" xmlns="http://www.w3.org/2000/svg" viewBox="0 0 403.73 66.52"><defs><style>.cls-1{fill:#231f20;}</style></defs><title>noshooga_logo</title><path class="cls-1" d="M60.24,0a23.64,23.64,0,0,0-2.58,5.53A87.48,87.48,0,0,0,54.49,18.3a95.31,95.31,0,0,0-1.63,17.84q0,14.32,1.21,19.48a23.62,23.62,0,0,0,4.7,9.47c-.57,0-1.34.07-2.32.07a32.34,32.34,0,0,1-6-.53,34.31,34.31,0,0,1-5-1.28,15.74,15.74,0,0,1-4.11-2.2A42.27,42.27,0,0,1,38,58.46,16.21,16.21,0,0,1,35.24,55c-.92-1.46-1.65-2.7-2.22-3.71a37.2,37.2,0,0,1-1.9-4.21c-.7-1.79-1.23-3.22-1.58-4.28s-.84-2.59-1.48-4.58-1.12-3.48-1.47-4.44q-3.27-9.54-7-14.32a106.65,106.65,0,0,0-1.26,16.67q0,14.86.89,19.52a20.07,20.07,0,0,0,4.07,8.67,13.22,13.22,0,0,1-6.54-2.08,7.21,7.21,0,0,1-3.17-5q-1,6-11.71,9.92c1.19-1.81,2.11-3.32,2.74-4.5S6,58.81,6.75,54.75A79.69,79.69,0,0,0,7.91,40a126.74,126.74,0,0,0-2.27-25.2Q3.38,3.64,0,1.21a29.79,29.79,0,0,1,11.24,3.3,27.82,27.82,0,0,1,8.6,7.16,60.6,60.6,0,0,1,6,8.94A93.59,93.59,0,0,1,30.6,31q1.16,3.11,2.9,8.07l2.74,7.81a43.85,43.85,0,0,0,2.53,5.75,14.49,14.49,0,0,0,3.12,4.29q.42-10,.42-16.9A127.16,127.16,0,0,0,40,14.78Q37.78,3.64,34.39,1.21q4.23.15,9,3.53t5.17,7.31A21,21,0,0,1,53.6,3.71Q57,.38,60.24,0Z"/><path class="cls-1" d="M104.57,44.91a20.81,20.81,0,0,1-2.78,10.42,21.82,21.82,0,0,1-8,8.05A22.5,22.5,0,0,1,82,66.52a23.51,23.51,0,0,1-12-2.94A18.82,18.82,0,0,1,62.6,56.2a20.18,20.18,0,0,1-2.36-9.6,20.78,20.78,0,0,1,2.48-10,19.66,19.66,0,0,1,7.92-7.69,25.72,25.72,0,0,1,12.91-3.09,22.79,22.79,0,0,1,11.69,2.87,18.05,18.05,0,0,1,7.13,7.09A19.38,19.38,0,0,1,104.57,44.91Zm-7.08-.58q0-9.75-3.73-12.69A5.4,5.4,0,0,1,94.52,34a6.2,6.2,0,0,1-2.82,5.09q-2.82,2.1-7.84,2.1a11.25,11.25,0,0,1-6.25-1.55,4.44,4.44,0,0,1-2.36-3.71,4.27,4.27,0,0,1,2-3.67,8.68,8.68,0,0,1,5.06-1.4A8.11,8.11,0,0,1,86.75,32a3.25,3.25,0,0,1,1.83,2.7,2.91,2.91,0,0,1-1.41,2.44,6.44,6.44,0,0,1-6.21.36c-.81-.42-1.22-.93-1.22-1.54a1.51,1.51,0,0,1,.84-1.36,4.16,4.16,0,0,1,3.7-.09,1.14,1.14,0,0,1,.72,1,1,1,0,0,1-.42.82,3.9,3.9,0,0,1-.84.53q-.42.19-.42.24c0,.2.28.29.84.29a3.32,3.32,0,0,0,2-.79,2.36,2.36,0,0,0-.42-4.13,6.73,6.73,0,0,0-3.35-.82,7,7,0,0,0-4.11,1.18,3.53,3.53,0,0,0-1.68,3,3.89,3.89,0,0,0,2.06,3.28,8.81,8.81,0,0,0,4.95,1.35,10.72,10.72,0,0,0,6.74-1.88,5.56,5.56,0,0,0,2.4-4.49,5.89,5.89,0,0,0-2.63-5.11,11.54,11.54,0,0,0-6.74-1.83,11.12,11.12,0,0,0-9.86,5.06c-2.27,3.38-3.39,7.83-3.39,13.36a32.37,32.37,0,0,0,1.44,10.09,15.27,15.27,0,0,0,4.5,7,11.3,11.3,0,0,0,15-.53A18.44,18.44,0,0,0,96,54.29,32,32,0,0,0,97.49,44.33Z"/><path class="cls-1" d="M158.59,46.61q0,8.66-8.15,14.28t-20,5.63q-10.35,0-16.57-3.87t-6.22-9.46A10.3,10.3,0,0,1,111.76,45q4.08-3.4,10.66-3.41a13.63,13.63,0,0,1,8.52,2.45,7.25,7.25,0,0,1,3.19,5.9,7.13,7.13,0,0,1-2.72,5.82A10.53,10.53,0,0,1,124.52,58a10.2,10.2,0,0,1-6.12-1.84,5.23,5.23,0,0,1-2.56-4.29,4.78,4.78,0,0,1,2-3.87,7.42,7.42,0,0,1,4.71-1.56,7.52,7.52,0,0,1,3.81,1,2.87,2.87,0,0,1,1.73,2.45,2.44,2.44,0,0,1-1.15,2.15,5,5,0,0,1-5.07.15,1.84,1.84,0,0,1-1-1.61,1.72,1.72,0,0,1,.57-1.3,5.24,5.24,0,0,1,1.15-.84c.38-.21.58-.34.58-.39,0-.3-.39-.46-1.15-.46a4.18,4.18,0,0,0-2.77,1.27,4.06,4.06,0,0,0-1.42,3.18,3.91,3.91,0,0,0,1.94,3.36,7.93,7.93,0,0,0,4.55,1.31,8.82,8.82,0,0,0,5.75-1.88,5.83,5.83,0,0,0,2.29-4.71,6.33,6.33,0,0,0-2.87-5.21,11,11,0,0,0-6.74-2.14,13.79,13.79,0,0,0-9,2.87,9.53,9.53,0,0,0-3.51,7.77q0,4.76,5.33,8a24,24,0,0,0,12.76,3.25q8.46,0,13.85-3.75a11.51,11.51,0,0,0,5.38-9.88,9.23,9.23,0,0,0-2.14-6,16.85,16.85,0,0,0-5.59-4.33,68.44,68.44,0,0,0-7.63-3.21q-4.18-1.5-8.37-3.1a61.51,61.51,0,0,1-7.63-3.53,16.38,16.38,0,0,1-5.59-5,12,12,0,0,1-2.14-7q0-8.11,7.73-12.79t18.51-4.67q7.51,0,12,2.76t4.49,7a8.47,8.47,0,0,1-3.71,7A14.27,14.27,0,0,1,138.63,21a11.92,11.92,0,0,1-7.48-2.14,6.17,6.17,0,0,1-2.77-4.9,5.81,5.81,0,0,1,2.35-4.56,8.65,8.65,0,0,1,5.7-1.95,8.32,8.32,0,0,1,4.5,1.07,3.21,3.21,0,0,1,1.67,2.76,3.35,3.35,0,0,1-1.2,2.6,4.44,4.44,0,0,1-3.09,1.07,5.19,5.19,0,0,1-3.13-.84A2.37,2.37,0,0,1,134,12.15a2.74,2.74,0,0,1,1.46-2.38c.77-.46,1.15-.76,1.15-.92s-.24-.3-.73-.3a6,6,0,0,0-3.5,1.45,4.57,4.57,0,0,0-1.94,3.83,5,5,0,0,0,2.3,4.1,9.68,9.68,0,0,0,6,1.72A10.36,10.36,0,0,0,146,17.2a7.89,7.89,0,0,0,2.71-6.12c0-2.4-1.2-4.36-3.6-5.86a19.5,19.5,0,0,0-19.6.8c-2.79,2-4.19,4.55-4.19,7.51a9.48,9.48,0,0,0,2,6.08,15.23,15.23,0,0,0,5.33,4.18,63.23,63.23,0,0,0,7.32,3c2.68.92,5.35,1.91,8,2.95a46.32,46.32,0,0,1,7.26,3.6,15.86,15.86,0,0,1,5.34,5.4A15,15,0,0,1,158.59,46.61Z"/><path class="cls-1" d="M198.17,22.57q-1.3,1.79-3.55,12.5a87.47,87.47,0,0,0-2.24,16.59q0,11.58,3.81,13.8a4.46,4.46,0,0,1-.84.09,9,9,0,0,1-4.19-1.27,8.69,8.69,0,0,1-3.58-3.5,11.4,11.4,0,0,1-3.05,3.54,12.72,12.72,0,0,1-3.88,2.2,37.55,37.55,0,0,0,4.19-17.75c0-1,0-1.76-.08-2.27a13.18,13.18,0,0,0-4.11,1.18,4.64,4.64,0,0,0-2.06,2.68,3.62,3.62,0,0,0-2.21-2.63,15.44,15.44,0,0,0-4.95-.94V47q0,8.84.8,12.37a12.38,12.38,0,0,0,2.32,5.33,8.15,8.15,0,0,1-6.24-3.37,9.12,9.12,0,0,1-3,3,13.24,13.24,0,0,1-4.15,2,12.42,12.42,0,0,0,2.09-5.21,70.49,70.49,0,0,0,.65-11.63,51.28,51.28,0,0,0-2-15.07q-2-6.59-4.61-8.28a12.38,12.38,0,0,1,5.41,1.52,12,12,0,0,1,4.27,3.74,10,10,0,0,1,4.22-3.83,25.87,25.87,0,0,1,5.15-2.34,12.61,12.61,0,0,0-1.76,3.18,41,41,0,0,0-2,7.36,57.53,57.53,0,0,0-1.11,10.83q5.87-.54,6.93-3.57.39,2.51,6.4,3.13-.15-17.79-3.58-20.4a11.12,11.12,0,0,1,4.65,1.95,6.93,6.93,0,0,1,3,3.88,15.32,15.32,0,0,1,3.88-5.4A13.9,13.9,0,0,1,198.17,22.57Z"/><path class="cls-1" d="M243.26,44.91a20.91,20.91,0,0,1-2.78,10.42,21.93,21.93,0,0,1-8,8.05,22.44,22.44,0,0,1-11.73,3.14,23.51,23.51,0,0,1-12-2.94,18.79,18.79,0,0,1-7.42-7.38,20.06,20.06,0,0,1-2.36-9.6,20.77,20.77,0,0,1,2.47-10,19.66,19.66,0,0,1,7.92-7.69,25.75,25.75,0,0,1,12.91-3.09,22.85,22.85,0,0,1,11.7,2.87,18,18,0,0,1,7.12,7.09A19.39,19.39,0,0,1,243.26,44.91Zm-7.09-.58q0-9.75-3.73-12.69A5.4,5.4,0,0,1,233.2,34a6.2,6.2,0,0,1-2.82,5.09c-1.87,1.4-4.49,2.1-7.84,2.1a11.28,11.28,0,0,1-6.25-1.55,4.44,4.44,0,0,1-2.36-3.71,4.27,4.27,0,0,1,2-3.67,8.71,8.71,0,0,1,5.07-1.4A8.1,8.1,0,0,1,225.43,32a3.25,3.25,0,0,1,1.83,2.7,2.91,2.91,0,0,1-1.41,2.44,5.86,5.86,0,0,1-3.46,1,5.92,5.92,0,0,1-2.75-.63c-.81-.42-1.21-.93-1.21-1.54a1.5,1.5,0,0,1,.83-1.36,4.16,4.16,0,0,1,3.7-.09,1.14,1.14,0,0,1,.72,1,1,1,0,0,1-.42.82,4.1,4.1,0,0,1-.83.53q-.42.19-.42.24c0,.2.27.29.83.29a3.3,3.3,0,0,0,2-.79,2.36,2.36,0,0,0-.42-4.13,6.73,6.73,0,0,0-3.35-.82A7,7,0,0,0,217,32.82a3.53,3.53,0,0,0-1.68,3,3.89,3.89,0,0,0,2.06,3.28,8.81,8.81,0,0,0,4.95,1.35,10.7,10.7,0,0,0,6.74-1.88,5.56,5.56,0,0,0,2.4-4.49,5.87,5.87,0,0,0-2.63-5.11,11.54,11.54,0,0,0-6.74-1.83,11.14,11.14,0,0,0-9.86,5.06q-3.39,5.07-3.39,13.36a32.07,32.07,0,0,0,1.45,10.09,15.17,15.17,0,0,0,4.49,7,11.3,11.3,0,0,0,15-.53,18.44,18.44,0,0,0,4.84-7.79A31.67,31.67,0,0,0,236.17,44.33Z"/><path class="cls-1" d="M290.48,44.91a20.81,20.81,0,0,1-2.78,10.42,21.82,21.82,0,0,1-8,8.05,22.5,22.5,0,0,1-11.73,3.14,23.48,23.48,0,0,1-12-2.94,18.82,18.82,0,0,1-7.43-7.38,20.18,20.18,0,0,1-2.36-9.6,20.78,20.78,0,0,1,2.48-10,19.66,19.66,0,0,1,7.92-7.69,25.72,25.72,0,0,1,12.91-3.09,22.79,22.79,0,0,1,11.69,2.87,18,18,0,0,1,7.12,7.09A19.27,19.27,0,0,1,290.48,44.91Zm-7.08-.58q0-9.75-3.73-12.69a5.54,5.54,0,0,1,.76,2.32,6.2,6.2,0,0,1-2.82,5.09c-1.88,1.4-4.49,2.1-7.85,2.1a11.22,11.22,0,0,1-6.24-1.55,4.41,4.41,0,0,1-2.36-3.71,4.27,4.27,0,0,1,2-3.67,8.68,8.68,0,0,1,5.06-1.4A8.11,8.11,0,0,1,272.66,32a3.25,3.25,0,0,1,1.83,2.7,2.91,2.91,0,0,1-1.41,2.44,6.44,6.44,0,0,1-6.21.36c-.81-.42-1.22-.93-1.22-1.54a1.51,1.51,0,0,1,.84-1.36,4.14,4.14,0,0,1,3.69-.09,1.16,1.16,0,0,1,.73,1,1,1,0,0,1-.42.82,3.9,3.9,0,0,1-.84.53q-.42.19-.42.24c0,.2.28.29.84.29a3.32,3.32,0,0,0,2-.79,2.36,2.36,0,0,0-.42-4.13,6.76,6.76,0,0,0-3.35-.82,7,7,0,0,0-4.12,1.18,3.54,3.54,0,0,0-1.67,3,3.88,3.88,0,0,0,2.05,3.28,8.85,8.85,0,0,0,5,1.35,10.72,10.72,0,0,0,6.74-1.88,5.56,5.56,0,0,0,2.4-4.49,5.89,5.89,0,0,0-2.63-5.11,11.54,11.54,0,0,0-6.74-1.83,11.15,11.15,0,0,0-9.87,5.06q-3.39,5.07-3.39,13.36a32.36,32.36,0,0,0,1.45,10.09,15.17,15.17,0,0,0,4.49,7A11.31,11.31,0,0,0,277,62.08a18.33,18.33,0,0,0,4.83-7.79A31.67,31.67,0,0,0,283.4,44.33Z"/><path class="cls-1" d="M340.45,46c-.1,1.06-1.88,2.11-5.33,3.13a8.37,8.37,0,0,1,2.93,1.28,7.6,7.6,0,0,1,1.71,1.52,45.89,45.89,0,0,0-8.22-1.49,7.52,7.52,0,0,1,.68,3.28,11.13,11.13,0,0,1-1.75,5.93,14,14,0,0,1-5.63,4.87,19.54,19.54,0,0,1-9.15,2,23.62,23.62,0,0,1-12.07-3,19.22,19.22,0,0,1-7.54-7.48,21,21,0,0,1,0-19.56A19.2,19.2,0,0,1,303.93,29a25.65,25.65,0,0,1,12.76-3q6.93,0,10.73,2.6t3.81,6.08a6.19,6.19,0,0,1-2.78,5.09q-2.77,2.1-7.8,2.1a11.25,11.25,0,0,1-6.25-1.54A4.44,4.44,0,0,1,312,36.56a4.33,4.33,0,0,1,2-3.69,8.54,8.54,0,0,1,5.06-1.42,8,8,0,0,1,4.42,1.18,3.29,3.29,0,0,1,1.83,2.68,3,3,0,0,1-1.45,2.46,5.86,5.86,0,0,1-3.43,1,6,6,0,0,1-2.78-.65c-.83-.43-1.25-.94-1.25-1.52a1.52,1.52,0,0,1,.83-1.37,3.75,3.75,0,0,1,2-.51,3.82,3.82,0,0,1,1.75.39,1.18,1.18,0,0,1,.76,1.06,1,1,0,0,1-.46.77,5.64,5.64,0,0,1-.87.53q-.42.2-.42.24c0,.19.3.29.91.29a3.23,3.23,0,0,0,1.94-.8,2.41,2.41,0,0,0,1-2,2.37,2.37,0,0,0-1.41-2.1,6.62,6.62,0,0,0-3.31-.79,7.1,7.1,0,0,0-4.15,1.18,3.48,3.48,0,0,0-1.72,2.92,3.85,3.85,0,0,0,2.1,3.3,8.91,8.91,0,0,0,4.91,1.33q4.43,0,6.78-1.86a5.58,5.58,0,0,0,2.36-4.51,6.56,6.56,0,0,0-2.86-5.21q-2.85-2.26-7.88-2.27a14.35,14.35,0,0,0-13.9,9.22,24.37,24.37,0,0,0-1.48,8.73,29.08,29.08,0,0,0,1.56,9.48,19.63,19.63,0,0,0,4.45,7.52,8.86,8.86,0,0,0,6.48,3,8.68,8.68,0,0,0,5.06-1.4,7.07,7.07,0,0,0,2.74-3.3,11.81,11.81,0,0,0,.73-4.27q0-4-1.68-6a44.36,44.36,0,0,0-11.19,1.93,3.78,3.78,0,0,1,1.63-2,6.56,6.56,0,0,1,3.55-1.18,6.46,6.46,0,0,1-5.18-3,40.69,40.69,0,0,0,7,1.23,76.13,76.13,0,0,0,8.49.51,63.84,63.84,0,0,0,7.84-.48A28.71,28.71,0,0,0,340.45,46Z"/><path class="cls-1" d="M340.45,65.89q7.13-1,9.08-5.4a6.8,6.8,0,0,0,2.63,3.26,15.68,15.68,0,0,0,4.5,2.29q-2.34-3.87-3.37-13.22l15.67,0,1,.91c1.73,1.68,3.15,3,4.27,4s2.52,2.12,4.19,3.37a30,30,0,0,0,4.55,2.9,26.09,26.09,0,0,0,4.73,1.74,21.14,21.14,0,0,0,5.45.72,13.6,13.6,0,0,0,7.55-2c2-1.31,3-2.84,3-4.61s-1-3.43-2.94-4.87a11.83,11.83,0,0,0-7.24-2.17,11.19,11.19,0,0,0-5.84,1.35c-1.48.9-2.23,2-2.23,3.18a4.39,4.39,0,0,0,2.27,3.69,9.39,9.39,0,0,0,5.33,1.52,6.63,6.63,0,0,0,3.91-1,2.91,2.91,0,0,0,1.41-2.37,2.63,2.63,0,0,0-1.21-2.19,5,5,0,0,0-3.09-.89,4.17,4.17,0,0,0-2.39.62,1.76,1.76,0,0,0,0,3.07,3.72,3.72,0,0,0,2.23.65,4,4,0,0,0,1.17-.17A4.93,4.93,0,0,0,396,60a1.46,1.46,0,0,1,.39-.17c.21,0,.31.1.31.29,0,.39-.36.75-1.1,1.09a6.64,6.64,0,0,1-2.74.5,6.31,6.31,0,0,1-3.95-1.23,3.53,3.53,0,0,1-1.61-2.82,3.08,3.08,0,0,1,1.77-2.75,8.81,8.81,0,0,1,4.42-1,9.68,9.68,0,0,1,6.07,1.83,5.26,5.26,0,0,1,2.39,4.2,4.53,4.53,0,0,1-2.47,3.91c-1.64,1-2.09,1-5,1a15.74,15.74,0,0,1-4.94-.82,23.23,23.23,0,0,1-4.5-2,36.4,36.4,0,0,1-4.43-3.11q-2.41-1.95-4.07-3.52c-1.09-1-2.45-2.36-4.07-3.93-.47-.45-.81-.79-1-1q-2.9-2.9-7.95-8.37T353,30.55q-5.44-6.07-5.92-6.56l-2.22.56q.32,3.24.31,16.31a96.24,96.24,0,0,1-1.25,15.63Q342.64,64.05,340.45,65.89ZM353,47.66q0-8.64,1.18-10.57,9,10,12.92,13.9l-13.94-.34C353,49.23,353,48.24,353,47.66Z"/></svg>